<?xml version="1.0" encoding="utf-8"?>
<!-- Generator: Adobe Illustrator 17.0.2, SVG Export Plug-In . SVG Version: 6.00 Build 0)  -->
<!DOCTYPE svg PUBLIC "-//W3C//DTD SVG 1.1//EN" "http://www.w3.org/Graphics/SVG/1.1/DTD/svg11.dtd">
<svg version="1.1" id="logo" xmlns="http://www.w3.org/2000/svg" xmlns:xlink="http://www.w3.org/1999/xlink" x="0px" y="0px"
	  viewBox="0 0 212.5 237.5" enable-background="new 0 0 212.5 237.5" xml:space="preserve">
<path id="main" fill="#78C9E9" d="M99.684,18.451c4.017-0.386,8.033,0.069,12.045,0.273c11.729,1.103,23.296,4.312,33.739,9.796
	c14.703,7.681,27.338,19.432,35.693,33.8c6.843,11.545,10.894,24.711,11.919,38.089c0.33,8.537,0.187,17.086,0.217,25.631
	c-0.004,21.133,0.004,42.266-0.004,63.4c-0.274,6.214,0.148,12.458-0.604,18.646c-0.27,2.506-0.686,5.098-1.967,7.308
	c-1.272,2.158-3.938,3.227-6.37,2.822c-1.385-0.391-2.531-1.324-3.59-2.258c-5.411-5.158-9.284-11.779-15.185-16.447
	c-2.28-1.729-5.35-3.257-8.22-2.085c-4.073,1.637-6.674,5.385-9.396,8.632c-3.469,4.213-6.769,8.989-11.863,11.351
	c-3.183,1.528-7.069,0.942-9.857-1.142c-6.014-4.455-9.131-11.676-14.963-16.327c-2.966-2.383-7.056-3.646-10.786-2.496
	c-3.27,0.859-5.762,3.344-7.833,5.892c-2.831,3.578-4.994,7.656-8.055,11.056c-1.694,1.881-3.904,3.387-6.426,3.839
	c-2.948,0.396-5.823-0.96-8.029-2.818c-5.363-4.528-8.354-11.168-13.591-15.818c-2.202-2.015-5.45-3.305-8.376-2.145
	c-5.263,1.914-9.037,6.273-12.854,10.16c-3.356,3.339-6.148,7.321-10.165,9.935c-2.045,1.398-4.806,0.612-6.639-0.786
	c-2.123-1.736-2.931-4.524-3.539-7.091c-1.203-5.936-1.116-12.019-1.138-18.046c-0.134-4.203-0.191-8.41,0.008-12.613
	c-0.013-23.596-0.004-47.191-0.004-70.786c-0.704-24.433,9.787-48.85,27.664-65.462c10.638-9.991,23.721-17.413,37.838-21.164
	C85.988,19.792,92.819,18.746,99.684,18.451z"/>
<path fill="#FFFFFF" d="M78.98,76.349c4.62-0.964,9.496-0.543,13.886,1.194c6.739,2.597,12.206,8.407,14.242,15.358
	c1.524,4.811,1.463,10.122-0.143,14.907c-2.449,7.92-9.379,14.181-17.46,15.944c-2.254,0.426-4.524,1.063-6.835,0.777
	c-3.339-0.456-6.695-1.138-9.722-2.684c-6.092-3.021-10.821-8.74-12.475-15.357c-1.967-7.352-0.425-15.723,4.477-21.62
	C68.459,80.518,73.483,77.426,78.98,76.349z"/>
<path fill="#FFFFFF" d="M153.184,76.345c6.335-1.359,13.183,0.031,18.567,3.626c4.229,2.918,7.629,7.121,9.271,12.023
	c2.558,7.291,1.477,15.792-2.979,22.132c-3.417,4.928-8.767,8.467-14.638,9.691c-1.719,0.322-3.435,0.769-5.189,0.781
	c-6.361-0.338-12.84-2.592-17.316-7.277c-4.703-4.472-6.957-10.972-7.208-17.355c0.313-5.827,2.258-11.707,6.266-16.058
	C143.409,80.053,148.112,77.37,153.184,76.345z"/>
<path fill="#053F82" d="M89.892,89.493c3.917-1.329,8.528-0.283,11.45,2.657c3.383,3.304,4.273,8.806,2.115,13.014
	c-1.502,2.987-4.39,5.297-7.694,5.931c-3.639,0.851-7.686-0.386-10.274-3.079c-2.089-2.097-3.326-5.059-3.192-8.033
	C82.176,95.329,85.507,90.926,89.892,89.493z"/>
<path fill="#053F82" d="M164.122,89.493c3.218-1.073,6.926-0.608,9.739,1.298c2.345,1.515,4.004,3.994,4.681,6.691
	c0.973,3.965-0.382,8.398-3.504,11.056c-4.095,3.842-11.138,3.712-15.089-0.274c-3.07-2.792-4.151-7.352-3.04-11.294
	C157.908,93.505,160.683,90.596,164.122,89.493z"/>
</svg>
